<svg width="222" height="70" viewBox="0 0 222 70" fill="none" xmlns="http://www.w3.org/2000/svg">
<path d="M63.8896 49.6261C63.5402 48.7735 63.2127 47.8772 62.8634 47.1121L61.2476 43.4614L61.1821 43.3959C56.3785 32.9029 51.2474 22.2351 45.8105 11.7421L45.5922 11.3049C45.0463 10.2775 44.5005 9.14074 43.9328 8.09144C43.2341 6.8454 42.5572 5.51192 41.4436 4.24403C40.3582 2.91739 38.9921 1.84855 37.444 1.11462C35.8959 0.380698 34.2043 0 32.4914 0C30.7785 0 29.087 0.380698 27.5389 1.11462C25.9908 1.84855 24.6247 2.91739 23.5392 4.24403C22.513 5.51192 21.7488 6.8454 21.0501 8.09144C20.5042 9.22818 19.9584 10.3431 19.3907 11.3705L19.1723 11.8077C13.8229 22.3007 8.60438 32.9685 3.80077 43.4614L3.66976 43.5926C3.1894 44.7293 2.6217 45.9098 2.07584 47.1777C1.72649 47.9428 1.37713 48.7735 1.02778 49.6916C0.084595 52.0958 -0.216593 54.7045 0.153897 57.2607C0.524388 59.8169 1.55377 62.2324 3.14059 64.269C4.72741 66.3056 6.81691 67.8931 9.20314 68.875C11.5894 69.857 14.19 70.1994 16.7487 69.8687C19.2017 69.5454 21.5638 68.7274 23.6921 67.4641C26.5306 65.8683 29.2599 63.5511 32.3168 60.2064C35.3736 63.5511 38.1684 65.8683 40.9414 67.4859C43.6081 69.053 46.6279 69.9179 49.7189 69.9999C53.2984 70.0147 56.7624 68.7326 59.4713 66.3901C62.1802 64.0476 63.9512 60.803 64.4573 57.2553C65.0421 54.7059 64.8442 52.0391 63.8896 49.6042V49.6261ZM32.5351 53.2549C28.7796 48.4456 26.3341 44.0298 25.5044 40.248C25.1606 38.8466 25.0865 37.3925 25.286 35.9634C25.4389 34.8485 25.8537 33.8648 26.4214 33.0341C27.7315 31.1322 30.0241 29.9518 32.5351 29.9518C33.7276 29.9153 34.9104 30.1758 35.9775 30.71C37.0446 31.2442 37.9625 32.0352 38.6488 33.0122C39.2165 33.8866 39.6314 34.8485 39.7624 35.9634C39.9807 37.2313 39.8934 38.6959 39.544 40.248C38.7143 43.9642 36.2688 48.4237 32.5351 53.2549ZM60.3524 56.4902C60.1043 58.2914 59.3891 59.996 58.2782 61.4343C57.1672 62.8726 55.6992 63.9944 54.0203 64.6878C52.3609 65.3873 50.5268 65.5841 48.7364 65.3873C46.9896 65.1687 45.2428 64.6004 43.4524 63.5511C40.4796 61.7115 37.8065 59.426 35.5264 56.7744C40.1117 51.0907 42.8847 45.9098 43.9328 41.2973C44.435 39.1112 44.5005 37.1438 44.2821 35.3294C44.0095 33.6096 43.3689 31.9691 42.4043 30.5201C41.303 28.9489 39.833 27.6727 38.1235 26.8036C36.414 25.9345 34.5175 25.4992 32.6006 25.536C28.5612 25.536 24.9585 27.416 22.775 30.4983C21.7921 31.9436 21.1569 33.5972 20.9191 35.3294C20.6352 37.1657 20.7008 39.1987 21.2685 41.2973C22.3165 45.9098 25.155 51.1563 29.6748 56.8181C27.4334 59.5204 24.754 61.826 21.7488 63.6385C19.9365 64.6878 18.2116 65.2343 16.4648 65.4529C13.7484 65.8013 11.0043 65.0621 8.82919 63.3961C6.65406 61.7301 5.22363 59.2719 4.84883 56.5558C4.63049 54.8069 4.78333 53.0581 5.48204 51.0907C5.70038 50.3912 6.0279 49.6916 6.37725 48.8609C6.85762 47.7242 7.42532 46.5437 7.97118 45.3633L8.05852 45.2103C12.7748 34.7829 17.9278 24.1369 23.2772 13.7095L23.4956 13.2723C24.0414 12.223 24.5873 11.1082 25.155 10.0589C25.7227 8.94399 26.3341 7.87284 27.1201 6.99843C27.8005 6.18527 28.6507 5.53132 29.6108 5.08262C30.5708 4.63393 31.6175 4.4014 32.677 4.4014C33.7366 4.4014 34.7832 4.63393 35.7433 5.08262C36.7034 5.53132 37.5535 6.18527 38.2339 6.99843C38.9981 7.87284 39.6313 8.94399 40.199 10.0589C40.7449 11.1082 41.2908 12.2449 41.8585 13.2723L42.0768 13.7095C47.4045 24.1369 52.5574 34.7829 57.361 45.2103L57.4265 45.2758C57.9942 46.4126 58.4746 47.6805 59.0205 48.7735C59.3698 49.6261 59.7192 50.3037 59.9375 51.0251C60.3524 52.9925 60.5707 54.7414 60.3524 56.4902ZM90.7461 52.7739C89.1008 52.798 87.4712 52.451 85.9781 51.7584C84.4851 51.0659 83.1669 50.0457 82.1215 48.7735C79.7722 46.0627 78.5254 42.5675 78.6279 38.9801C78.592 35.3146 79.8791 31.7593 82.2525 28.968C83.3503 27.6796 84.7169 26.6479 86.2561 25.9454C87.7952 25.2429 89.4695 24.8867 91.161 24.902C92.7526 24.8584 94.3291 25.2208 95.7424 25.955C97.1556 26.6892 98.3591 27.7712 99.2398 29.0992L99.4581 25.6671H105.834V52.0744H99.4363L99.218 48.227C98.31 49.645 97.0551 50.8071 95.5723 51.6029C94.0896 52.3987 92.4283 52.8018 90.7461 52.7739ZM92.4056 46.4782C93.672 46.4782 94.7855 46.1284 95.8336 45.4945C96.7943 44.7949 97.5804 43.8768 98.1917 42.7619C98.7376 41.647 99.0215 40.3136 99.0215 38.8271C99.1066 37.536 98.8556 36.2449 98.2929 35.08C97.7303 33.9152 96.8754 32.9165 95.8118 32.1815C94.7898 31.544 93.6097 31.2061 92.4056 31.2061C91.2014 31.2061 90.0214 31.544 88.9994 32.1815C88.0387 32.881 87.2526 33.7992 86.6412 34.9141C86.0638 36.1436 85.7798 37.4906 85.8115 38.8489C85.7264 40.14 85.9774 41.4311 86.54 42.5959C87.1026 43.7608 87.9576 44.7595 89.0212 45.4945C90.0474 46.1284 91.161 46.4782 92.4056 46.4782ZM116.751 18.5407C116.751 19.3058 116.62 20.0053 116.271 20.5737C115.921 21.1202 115.441 21.623 114.808 21.9727C114.175 22.3225 113.498 22.4537 112.799 22.4537C112.1 22.4537 111.402 22.3225 110.768 21.9727C110.17 21.639 109.666 21.1573 109.306 20.5737C108.967 19.951 108.802 19.2491 108.825 18.5407C108.825 17.7537 108.978 17.0542 109.306 16.5077C109.655 15.8519 110.157 15.4584 110.768 15.1086C111.402 14.7588 112.079 14.6058 112.799 14.6058C113.494 14.5898 114.181 14.7546 114.794 15.0841C115.406 15.4136 115.923 15.8966 116.293 16.4858C116.61 17.1231 116.768 17.8286 116.751 18.5407ZM109.327 51.987V25.6234H116.271V52.0307H109.306L109.327 51.987ZM134.83 32.5313V32.6187C134.503 32.4657 134.066 32.4001 133.738 32.3345C133.302 32.2471 132.952 32.2471 132.538 32.2471C130.594 32.2471 129.131 32.8155 128.171 33.9959C127.123 35.1982 126.642 36.8815 126.642 39.0457V52.0088H119.677V25.6016H126.075L126.293 29.602C126.992 28.2029 127.821 27.1536 129 26.3667C130.173 25.602 131.554 25.2202 132.952 25.2737C133.455 25.2737 133.935 25.3174 134.35 25.4048C134.568 25.4704 134.699 25.4704 134.83 25.536V32.5313ZM137.625 51.987V14.7807H144.568V28.9899C145.551 27.722 146.665 26.7383 148.062 25.9732C150.274 24.8872 152.787 24.5792 155.196 25.0988C157.605 25.6183 159.768 26.9352 161.337 28.8369C163.692 31.5533 164.939 35.0572 164.831 38.6522C164.867 42.3177 163.58 45.873 161.206 48.6642C160.109 49.9526 158.742 50.9844 157.203 51.6869C155.664 52.3894 153.989 52.7455 152.298 52.7302C150.706 52.7738 149.13 52.4115 147.717 51.6773C146.303 50.9431 145.1 49.8611 144.219 48.533L144.001 51.9651L137.625 52.0307V51.987ZM151.053 46.4782C152.298 46.4782 153.411 46.1284 154.46 45.4945C155.42 44.7949 156.206 43.8768 156.818 42.7619C157.385 41.647 157.647 40.3136 157.647 38.8271C157.647 37.3624 157.385 36.0289 156.818 34.9141C156.244 33.839 155.439 32.9055 154.46 32.1815C153.438 31.544 152.257 31.2061 151.053 31.2061C149.849 31.2061 148.669 31.544 147.647 32.1815C146.665 32.881 145.9 33.7992 145.267 34.9141C144.69 36.1436 144.406 37.4906 144.437 38.8489C144.352 40.14 144.603 41.4311 145.166 42.5959C145.729 43.7608 146.583 44.7595 147.647 45.4945C148.673 46.1284 149.787 46.4782 151.053 46.4782ZM167.451 52.0088V25.6016H173.849L174.067 29.0336C174.871 27.718 176.011 26.6414 177.37 25.915C178.729 25.1886 180.257 24.8389 181.796 24.902C183.556 24.8716 185.286 25.3614 186.77 26.3101C188.254 27.2588 189.425 28.6243 190.137 30.2359C190.901 31.8973 191.316 33.9522 191.316 36.2475V52.0744H184.351V37.1657C184.351 35.3294 183.936 33.8866 183.106 32.8155C182.277 31.7662 181.141 31.1978 179.7 31.1978C178.652 31.1978 177.735 31.4164 176.927 31.8973C176.163 32.4001 175.53 33.0341 175.05 33.9303C174.564 34.8363 174.323 35.8536 174.351 36.8815V52.0088H167.451ZM194.788 52.0088V14.7588H201.753V28.968C202.697 27.6931 203.924 26.6558 205.338 25.9386C206.751 25.2215 208.313 24.8441 209.898 24.8364C211.543 24.8123 213.173 25.1594 214.666 25.852C216.159 26.5445 217.477 27.5647 218.522 28.8369C220.86 31.5531 222.098 35.0464 221.994 38.6303C222.032 42.2962 220.745 45.8521 218.369 48.6423C217.272 49.9307 215.905 50.9625 214.366 51.665C212.827 52.3675 211.152 52.7237 209.461 52.7084C207.869 52.752 206.293 52.3896 204.879 51.6554C203.466 50.9212 202.263 49.8392 201.382 48.5112L201.186 51.9432L194.788 52.0088ZM208.282 46.4782C209.548 46.4782 210.662 46.1284 211.688 45.4945C212.671 44.7949 213.435 43.8768 214.068 42.7619C214.614 41.647 214.898 40.3136 214.898 38.8271C214.983 37.536 214.732 36.2449 214.169 35.08C213.607 33.9152 212.752 32.9165 211.688 32.1815C210.666 31.544 209.486 31.2061 208.282 31.2061C207.078 31.2061 205.898 31.544 204.876 32.1815C203.915 32.881 203.129 33.7992 202.517 34.9141C201.908 36.1326 201.622 37.4877 201.688 38.8489C201.603 40.14 201.854 41.4311 202.416 42.5959C202.979 43.7608 203.834 44.7595 204.897 45.4945C205.924 46.1284 206.972 46.4782 208.282 46.4782Z" fill="#EC5064"/>
</svg>
