<svg width="96" height="84" viewBox="0 0 96 84" fill="none" xmlns="http://www.w3.org/2000/svg">
<path d="M6 0.25C2.82436 0.25 0.25 2.82436 0.25 6C0.25 9.17564 2.82436 11.75 6 11.75V0.25ZM89.81 11.75C92.9856 11.75 95.56 9.17564 95.56 6C95.56 2.82436 92.9856 0.25 89.81 0.25V11.75ZM6 11.75H89.81V0.25H6V11.75Z" fill="#0E0E0E"/>
<path d="M6 72.5C2.82436 72.5 0.25 75.0744 0.25 78.25C0.25 81.4256 2.82436 84 6 84V72.5ZM89.81 84C92.9856 84 95.56 81.4256 95.56 78.25C95.56 75.0744 92.9856 72.5 89.81 72.5V84ZM6 84H89.81V72.5H6V84Z" fill="#0E0E0E"/>
<path d="M6 36.375C2.82436 36.375 0.25 38.9494 0.25 42.125C0.25 45.3006 2.82436 47.875 6 47.875V36.375ZM89.81 47.875C92.9856 47.875 95.56 45.3006 95.56 42.125C95.56 38.9494 92.9856 36.375 89.81 36.375V47.875ZM6 47.875H89.81V36.375H6V47.875Z" fill="#0E0E0E"/>
</svg>
