<svg width="71" height="72" viewBox="0 0 71 72" fill="none" xmlns="http://www.w3.org/2000/svg">
<path fill-rule="evenodd" clip-rule="evenodd" d="M52.4048 27.8696C58.5315 27.8696 63 23.1514 63 17.9348C63 12.7182 58.5315 8 52.4048 8C46.278 8 41.8095 12.7182 41.8095 17.9348C41.8095 23.1514 46.278 27.8696 52.4048 27.8696ZM52.4048 35.8696C62.6746 35.8696 71 27.8399 71 17.9348C71 8.02968 62.6746 0 52.4048 0C43.893 0 36.717 5.51574 34.5095 13.0435H5.72205e-06V22.8261H34.5095C36.717 30.3538 43.893 35.8696 52.4048 35.8696ZM18.5952 44C12.4685 44 8 48.7182 8 53.9348C8 59.1514 12.4685 63.8696 18.5952 63.8696C24.722 63.8696 29.1905 59.1514 29.1905 53.9348C29.1905 48.7182 24.722 44 18.5952 44ZM18.5952 36C8.32537 36 -2.43384e-06 44.0297 0 53.9348C0 63.8399 8.32537 71.8696 18.5952 71.8696C27.107 71.8696 34.283 66.3538 36.4905 58.8261L71 58.8261V49.0435L36.4905 49.0435C34.283 41.5158 27.107 36 18.5952 36Z" fill="#0E0E0E"/>
</svg>
